<svg width="156" height="156" viewBox="0 0 156 156" fill="none" xmlns="http://www.w3.org/2000/svg">
<path d="M143.598 49.7863C143.459 56.0987 140.584 62.4613 135.976 67.4421C134.483 69.0574 132.626 70.2936 130.559 71.0484C128.492 71.8031 126.276 72.0547 124.093 71.7823L114.309 70.5566C111.241 70.1733 108.361 68.8709 106.047 66.8205C103.734 64.7701 102.094 62.0677 101.344 59.0683L98.8373 49.0341C98.3191 46.9727 97.1324 45.8083 95.9346 45.4907C91.3047 44.2483 84.736 43.5964 77.9723 43.5964C71.2141 43.6076 64.6566 44.2817 60.0657 45.5019C58.8679 45.8194 57.6812 46.9727 57.1686 49.0341L54.6614 59.0683C53.9115 62.0685 52.2712 64.7715 49.9562 66.8219C47.6412 68.8724 44.7599 70.1743 41.6912 70.5566L31.9133 71.7823C29.7295 72.0563 27.5119 71.805 25.4449 71.0491C23.3779 70.2932 21.5213 69.0547 20.0294 67.4366C15.4219 62.4613 12.5414 56.0987 12.4077 49.7863C12.2629 43.3234 15.0374 37.0556 21.3722 33.0163C32.3144 26.0353 50.065 19.5 78.0002 19.5C105.941 19.5 123.686 26.0353 134.634 33.0163C140.963 37.0556 143.737 43.3234 143.598 49.7863Z" fill="#7F8384" fill-opacity="0.25"/>
<path d="M80.7852 96.1073C80.7852 94.9991 80.3449 93.9362 79.5613 93.1526C78.7776 92.3689 77.7148 91.9287 76.6066 91.9287C75.4984 91.9287 74.4355 92.3689 73.6519 93.1526C72.8683 93.9362 72.428 94.9991 72.428 96.1073V112.822C72.428 115.128 74.3 117 76.6066 117H87.7494C88.8577 117 89.9205 116.56 90.7041 115.776C91.4878 114.993 91.928 113.93 91.928 112.822C91.928 111.713 91.4878 110.651 90.7041 109.867C89.9205 109.083 88.8577 108.643 87.7494 108.643H80.7852V96.1073ZM114.214 108.643C114.214 118.248 110.398 127.459 103.607 134.25C96.8153 141.042 87.6041 144.857 77.9994 144.857C68.3948 144.857 59.1836 141.042 52.3921 134.25C45.6006 127.459 41.7852 118.248 41.7852 108.643C41.7852 99.0384 45.6006 89.8271 52.3921 83.0356C59.1836 76.2441 68.3948 72.4287 77.9994 72.4287C87.6041 72.4287 96.8153 76.2441 103.607 83.0356C110.398 89.8271 114.214 99.0384 114.214 108.643ZM105.857 108.643C105.857 101.255 102.922 94.1693 97.6974 88.945C92.4732 83.7208 85.3876 80.7859 77.9994 80.7859C70.6113 80.7859 63.5257 83.7208 58.3015 88.945C53.0772 94.1693 50.1423 101.255 50.1423 108.643C50.1423 116.031 53.0772 123.117 58.3015 128.341C63.5257 133.565 70.6113 136.5 77.9994 136.5C85.3876 136.5 92.4732 133.565 97.6974 128.341C102.922 123.117 105.857 116.031 105.857 108.643Z" fill="#7F8384" fill-opacity="0.15"/>
</svg>
